HIERARCHY
ROOT Bip001_Pelvis
{
  OFFSET 34.4345 95.6767 -26.8758
  CHANNELS 6 Xposition Yposition Zposition Zrotation Xrotation Yrotation
  JOINT Bip001_Spine
  {
    OFFSET 1.4188e-005 10.2191 -0.0116013
    CHANNELS 3 Zrotation Xrotation Yrotation
    JOINT Bip001_L_Thigh
    {
      OFFSET 11.0458 -10.2192 0.0116197
      CHANNELS 3 Zrotation Xrotation Yrotation
      JOINT Bip001_L_Calf
      {
        OFFSET -0.707118 -44.0221 0.360014
        CHANNELS 3 Zrotation Xrotation Yrotation
        JOINT Bip001_L_Foot
        {
          OFFSET -0.651902 -40.5938 -3.56146
          CHANNELS 3 Zrotation Xrotation Yrotation
          JOINT Bip001_L_Toe0
          {
            OFFSET 0.0530839 -10.2181 13.1504
            CHANNELS 3 Zrotation Xrotation Yrotation
            End Site
            {
              OFFSET -1.02532e-005 0 7.55606
            }
          }
        }
      }
    }
    JOINT Bip001_R_Thigh
    {
      OFFSET -11.0458 -10.2191 0.0115893
      CHANNELS 3 Zrotation Xrotation Yrotation
      JOINT Bip001_R_Calf
      {
        OFFSET 0.706994 -44.0221 0.35984
        CHANNELS 3 Zrotation Xrotation Yrotation
        JOINT Bip001_R_Foot
        {
          OFFSET 0.651786 -40.5938 -3.5613
          CHANNELS 3 Zrotation Xrotation Yrotation
          JOINT Bip001_R_Toe0
          {
            OFFSET -0.0531479 -10.2181 13.1504
            CHANNELS 3 Zrotation Xrotation Yrotation
            End Site
            {
              OFFSET -1.02894e-005 0 7.55606
            }
          }
        }
      }
    }
    JOINT Bip001_Spine1
    {
      OFFSET 1.87041e-005 14.5736 1.08638
      CHANNELS 3 Zrotation Xrotation Yrotation
      JOINT Bip001_Spine2
      {
        OFFSET 2.24614e-005 14.5058 -1.69078
        CHANNELS 3 Zrotation Xrotation Yrotation
        JOINT Bip001_Neck
        {
          OFFSET 2.20278e-005 15.3945 -0.489414
          CHANNELS 3 Zrotation Xrotation Yrotation
          JOINT Bip001_L_Clavicle
          {
            OFFSET 6.06036 -0.000579998 0.00836775
            CHANNELS 3 Zrotation Xrotation Yrotation
            JOINT Bip001_L_UpperArm
            {
              OFFSET 11.5509 -0.0600302 0.00193952
              CHANNELS 3 Zrotation Xrotation Yrotation
              JOINT Bip001_L_Forearm
              {
                OFFSET 25.9523 0.0806089 -2.15551
                CHANNELS 3 Zrotation Xrotation Yrotation
                JOINT Bip001_L_Hand
                {
                  OFFSET 32.2475 0.153767 1.63968
                  CHANNELS 3 Zrotation Xrotation Yrotation
                  JOINT Bip001_L_Finger0
                  {
                    OFFSET 6.04639 -2.20976 5.90322
                    CHANNELS 3 Zrotation Xrotation Yrotation
                    End Site
                    {
                      OFFSET 4.22375 -1.43895 0.606485
                    }
                  }
                  JOINT Bip001_L_Finger1
                  {
                    OFFSET 11.0826 -0.704819 -0.198153
                    CHANNELS 3 Zrotation Xrotation Yrotation
                    End Site
                    {
                      OFFSET 6.20027 -0.397518 -0.0787166
                    }
                  }
                }
              }
            }
          }
          JOINT Bip001_R_Clavicle
          {
            OFFSET -6.06037 -0.000563197 0.00835105
            CHANNELS 3 Zrotation Xrotation Yrotation
            JOINT Bip001_R_UpperArm
            {
              OFFSET -11.5509 -0.0599978 0.00190698
              CHANNELS 3 Zrotation Xrotation Yrotation
              JOINT Bip001_R_Forearm
              {
                OFFSET -25.9523 0.0806822 -2.15589
                CHANNELS 3 Zrotation Xrotation Yrotation
                JOINT Bip001_R_Hand
                {
                  OFFSET -32.2475 0.153859 1.63989
                  CHANNELS 3 Zrotation Xrotation Yrotation
                  JOINT Bip001_R_Finger0
                  {
                    OFFSET -6.04641 -2.20976 5.90317
                    CHANNELS 3 Zrotation Xrotation Yrotation
                    End Site
                    {
                      OFFSET -4.22376 -1.43895 0.60647
                    }
                  }
                  JOINT Bip001_R_Finger1
                  {
                    OFFSET -11.0826 -0.704794 -0.198182
                    CHANNELS 3 Zrotation Xrotation Yrotation
                    End Site
                    {
                      OFFSET -6.20028 -0.397504 -0.0787333
                    }
                  }
                }
              }
            }
          }
          JOINT Bip001_Head
          {
            OFFSET 1.09673e-005 11.2744 2.05948
            CHANNELS 3 Zrotation Xrotation Yrotation
            End Site
            {
              OFFSET 2.89576e-005 20.8808 -2.77728e-005
            }
          }
        }
      }
    }
  }
}
MOTION
Frames:	11
Frame Time:	0.04
35.5518 95.6068 -31.7546 -0.622464 -4.61348 -6.51812 0.0957095 2.6699 -0.760428 4.60949 0.651818 12.0626 -0.40584 10.3497 4.58399 2.63286 -5.78367 0.0525555 2.17641 -5.69401 -1.23582 -6.26662 -2.77226 0.393945 -0.0643577 11.3246 0.888394 -3.92355 -7.51331 5.04797 2.87033 -9.60901 3.12512 0.227299 5.33827 -1.52783 0.227299 5.33829 -1.52783 2.83639 -1.14981 0.665211 -23.9392 3.62639 -5.00405 -59.2523 38.3573 7.74544 11.4409 -8.36128 -20.9643 7.4618 0.531929 -1.50621 4.77083e-015 3.18055e-015 -1.59028e-015 1.59028e-015 6.36111e-015 -0 21.9441 7.62481 17.2563 60.8165 24.6029 -7.89151 -26.0178 18.6778 15.2556 3.5378 -9.99885 8.67103 -4.77083e-015 -6.36111e-015 -0 -3.18055e-015 -9.54167e-015 1.59028e-015 -0.341484 -12.4464 1.5377 
35.5402 95.58 -31.6872 -0.804273 -4.82429 -6.91504 0.131592 2.68345 -0.801185 4.75112 0.879488 12.3385 -0.496044 10.609 4.7967 2.81097 -5.95246 0.0525714 2.37041 -5.81068 -1.38718 -6.10945 -2.61011 0.519438 -0.21253 11.3424 1.01347 -3.90457 -7.55685 5.25769 2.87812 -9.66304 3.15413 0.301315 5.36563 -1.6112 0.301318 5.36563 -1.6112 2.90577 -1.38444 0.811036 -23.8712 3.91206 -5.12559 -59.5639 38.2862 7.9011 11.5238 -8.28241 -21.4397 7.51166 0.400954 -1.66391 1.59028e-015 -6.36111e-015 1.59028e-015 1.59028e-015 6.36111e-015 -0 21.7625 7.70965 16.8688 60.9031 24.2437 -8.16593 -26.2159 19.1347 15.6209 3.37308 -10.0194 8.15879 -1.76556e-031 6.36111e-015 1.59028e-015 4.77083e-015 6.36111e-015 -0 -0.363154 -12.3058 1.6742 
35.5441 95.5644 -31.6103 -0.895357 -4.95088 -7.26932 0.160102 2.67693 -0.85683 4.74758 1.0228 12.6887 -0.381034 10.8984 4.74479 2.38896 -6.39022 0.0528122 2.12598 -5.50838 -1.13214 -6.07475 -2.53117 0.538463 -0.299622 11.4064 1.10531 -3.84044 -7.62237 5.52576 2.88051 -9.67556 3.19364 0.3609 5.35129 -1.72376 0.3609 5.35132 -1.72375 2.45892 -2.08187 0.82498 -23.3269 4.57446 -4.97397 -59.8293 38.4049 7.96147 11.702 -8.24722 -21.91 7.34531 0.25778 -1.81175 2.64834e-031 -9.54166e-015 1.59028e-015 -9.54166e-015 -6.36111e-015 1.59028e-015 22.1974 8.30522 16.5079 60.9349 23.7701 -8.40945 -26.3619 19.4711 15.7726 2.67924 -10.0394 7.97951 4.77083e-015 -3.18055e-015 -0 4.77083e-015 -3.18056e-015 -0 0.445419 -11.6549 1.49746 
35.5213 95.559 -31.5309 -0.993595 -5.0061 -7.69625 0.198341 2.66506 -0.877959 4.67254 1.26946 12.2515 -0.414432 10.7502 5.46774 3.02368 -5.99617 0.0534293 2.28895 -5.81708 -1.19642 -6.03571 -2.45264 0.578514 -0.367777 11.3276 1.10406 -3.71058 -7.65464 5.89221 2.85584 -9.62255 3.19264 0.438678 5.32613 -1.77412 0.438543 5.32615 -1.77316 2.78484 -1.95132 0.920531 -23.5897 4.52907 -5.25583 -59.9439 38.6935 7.85523 11.7904 -8.59995 -22.4417 7.22291 0.35321 -1.82795 1.76556e-031 -6.36111e-015 1.59028e-015 3.18055e-015 0 -0 21.8197 8.13494 16.4386 60.9455 23.7411 -8.66293 -26.3494 19.4402 15.752 2.13305 -10.0719 7.69429 1.59028e-015 0 -1.59028e-015 -3.18055e-015 3.18056e-015 -1.59028e-015 0.0844054 -11.9164 1.70469 
35.5049 95.5731 -31.4215 -1.0327 -5.09025 -8.02277 0.252261 2.66284 -0.878013 4.57461 1.60238 12.1145 -0.417042 10.5168 5.83473 2.75162 -6.04253 0.0541444 2.13281 -5.68046 -1.07183 -6.12173 -2.28321 0.419263 -0.396619 11.1652 1.19743 -3.56061 -7.67311 6.26155 2.83976 -9.57918 3.18259 0.546236 5.32324 -1.76993 0.546318 5.32327 -1.7706 2.79491 -2.05667 0.92113 -23.7309 4.69349 -5.41263 -59.7994 39.1623 7.45917 12.1421 -8.78701 -22.9168 7.21183 0.327773 -1.90611 1.41245e-030 1.27222e-014 -6.36111e-015 -3.18055e-015 1.59028e-014 -3.18055e-015 21.4168 8.1121 16.2637 61.2304 23.6632 -8.7495 -26.3192 19.7599 15.6079 2.14493 -10.1648 7.52242 -1.59028e-015 3.18055e-015 -1.59028e-015 -1.59028e-015 0 -1.59028e-015 -0.0398606 -11.8209 1.71921 
35.4913 95.6043 -31.3105 -1.02486 -5.03812 -8.32237 0.278581 2.65172 -0.854945 4.46238 1.94199 12.1512 -0.379195 10.0161 6.01149 2.05346 -6.12064 0.0544851 1.84875 -5.39442 -0.835179 -6.21558 -2.18187 0.302047 -0.369023 10.8878 1.10659 -3.32529 -7.62707 6.68094 2.79931 -9.44933 3.12878 0.598366 5.29894 -1.72574 0.598011 5.29893 -1.72568 2.5566 -2.17168 0.87773 -23.7906 4.8398 -5.44589 -59.2726 39.8014 6.8984 12.3715 -9.7903 -23.5745 7.22321 0.554933 -1.74993 -3.18055e-015 -3.18055e-015 4.77083e-015 -3.18055e-015 -6.36111e-015 6.36111e-015 21.5099 8.24297 16.3718 61.3113 23.6629 -8.83438 -25.896 19.7071 15.2146 2.26354 -10.1749 7.37574 -0 -9.54166e-015 -0 3.18055e-015 -3.18056e-015 -1.59028e-015 0.254579 -11.7193 1.56813 
35.4745 95.6512 -31.2044 -0.993301 -4.95544 -8.43285 0.274933 2.61681 -0.846381 4.33518 2.29207 12.4824 -0.308656 9.32174 5.72513 2.32029 -5.62764 0.047894 1.94917 -5.6223 -0.880084 -6.33157 -1.96582 0.205148 -0.241439 10.4283 1.00558 -3.11345 -7.50274 6.9232 2.75627 -9.33849 3.11078 0.589598 5.22928 -1.70721 0.589612 5.22929 -1.70762 2.53417 -2.0339 0.812005 -23.9701 4.70715 -5.44942 -58.5466 39.841 6.34134 12.5819 -10.0722 -24.4432 7.70046 0.515253 -1.86267 3.18055e-015 -3.18055e-015 -0 6.36111e-015 -3.18056e-015 -0 21.4741 8.1333 16.4969 61.5407 24.2112 -8.74963 -25.1909 19.2447 14.4472 2.51761 -9.99465 7.36563 3.18055e-015 -3.18055e-015 -0 1.59028e-015 -3.18056e-015 -1.59028e-015 0.323743 -11.7171 1.49478 
35.4461 95.6849 -31.116 -0.964105 -4.88259 -8.37926 0.224821 2.59185 -0.854491 4.33204 2.44185 11.6995 -0.335901 9.0061 6.56121 1.73058 -5.78876 0.0451529 1.76374 -5.32635 -0.739133 -6.35606 -1.73819 0.0908707 -0.147924 10.0095 0.877397 -2.94466 -7.41423 7.10259 2.71108 -9.18989 3.04607 0.489026 5.18005 -1.72341 0.488998 5.18005 -1.72259 2.72229 -2.0249 0.78319 -24.1256 4.66132 -5.34283 -58.0422 39.5474 5.83523 12.8449 -10.2609 -25.4462 8.23746 0.486401 -2.00985 -8.82781e-032 3.18055e-015 1.59028e-015 -8.82782e-032 3.18056e-015 1.59028e-015 21.5282 8.21753 16.6313 61.6745 24.4741 -8.71543 -24.7205 18.7327 13.9141 3.17334 -9.65723 7.45242 1.59028e-015 -9.54166e-015 -1.59028e-015 -0 -6.36111e-015 -0 0.326351 -11.5615 1.51623 
35.396 95.7016 -31.0737 -0.955245 -4.72269 -8.26957 0.163891 2.56095 -0.83126 4.42172 2.40957 11.7229 -0.316595 8.80993 6.36702 1.90966 -5.56831 0.0431437 1.79555 -5.44436 -0.758868 -6.28513 -1.66292 0.0632516 -0.080432 9.69742 0.78705 -2.92846 -7.36158 7.05494 2.69968 -9.17835 3.06753 0.365547 5.11923 -1.67237 0.365548 5.11924 -1.67237 3.14512 -1.86409 0.622381 -24.4198 4.45126 -5.29878 -56.8059 37.6868 4.36289 12.5088 -8.70516 -25.7847 9.25138 0.135746 -2.91757 -3.18055e-015 -3.18055e-015 -3.18055e-015 -9.54166e-015 -6.36111e-015 -0 21.5911 8.24914 16.8935 61.6247 24.2771 -8.89892 -24.6753 18.8879 14.0835 3.44486 -9.49989 7.56182 1.59028e-015 -9.54166e-015 -0 -0 -3.18056e-015 -0 0.20504 -11.8192 1.50136 
35.3128 95.6975 -31.0591 -1.02122 -4.61491 -8.18963 0.136093 2.54728 -0.796127 4.60939 2.24245 11.8375 -0.294834 8.98093 6.11351 1.99964 -5.54363 0.0415348 1.85605 -5.53131 -0.813689 -6.09501 -1.71627 0.119463 -0.085674 9.73134 0.760224 -2.98064 -7.34604 6.94257 2.68782 -9.12133 3.02327 0.307676 5.09018 -1.60024 0.307879 5.09019 -1.60043 3.31365 -1.62767 0.569869 -24.6395 4.2074 -5.30523 -56.1024 36.947 3.59061 11.9679 -9.5052 -26.6304 9.17265 0.172822 -3.04107 -6.36111e-015 6.36111e-015 -0 -9.54166e-015 6.36111e-015 -0 21.777 8.14472 17.0941 61.6773 24.2521 -9.24416 -24.8849 18.6237 14.5356 3.61781 -9.42086 7.78436 -2.64834e-031 -9.54166e-015 -1.59028e-015 -1.59028e-015 -9.54167e-015 -0 0.395646 -12.195 1.48051 
35.2277 95.696 -31.0611 -1.063 -4.54109 -8.05773 0.114461 2.56632 -0.798723 4.75126 2.06361 11.797 -0.226001 9.13684 6.06562 1.73237 -5.68422 0.0403559 1.8063 -5.38004 -0.782081 -5.91189 -1.88152 0.24721 -0.120419 9.95491 0.779967 -3.09967 -7.34452 6.7027 2.71458 -9.17176 3.00891 0.264979 5.13079 -1.6019 0.264966 5.1308 -1.60169 3.51127 -1.90647 0.516492 -24.9068 4.37215 -4.88091 -55.8006 36.7865 3.04426 12.1256 -9.54838 -27.2741 9.34591 0.227287 -3.17279 5.29669e-031 -9.54166e-015 3.18055e-015 -0 -3.18056e-015 -0 21.7041 8.49327 17.1784 61.8809 24.5408 -9.408 -25.1536 17.9883 14.9987 3.62479 -9.32068 7.94593 1.59028e-015 -9.54166e-015 -1.59028e-015 -3.53113e-031 -1.27222e-014 -1.59028e-015 0.366785 -12.0096 1.47788 
